<?xml version="1.0" encoding="UTF-8"?>
<svg width="16px" height="16px" viewBox="0 0 16 16" version="1.1" xmlns="http://www.w3.org/2000/svg" xmlns:xlink="http://www.w3.org/1999/xlink">
    <title>64E4A89A-46E3-4639-A095-B948684454FC</title>
    <g id="Desktop-Search-Result-Page" stroke="none" stroke-width="1" fill="none" fill-rule="evenodd">
        <g id="Apartment-City-Search---Similar-Properties" transform="translate(-924.000000, -288.000000)">
            <g id="Modal" transform="translate(878.000000, 0.000000)">
                <g id="Card" transform="translate(22.000000, 88.000000)">
                    <g id="Filling-Fast" transform="translate(16.000000, 198.000000)">
                        <g id="Icon-/-24px-/-Filling-Fast" transform="translate(8.000000, 2.000000)">
                            <rect id="Empty-Bg" x="0" y="0" width="16" height="16"></rect>
                            <g id="Filling-Fast" transform="translate(4.001458, 2.000000)">
                                <path d="M2.39593352,0 C3.79680309,1.84956522 3.86984657,4.90695652 2.39593352,6.5373913 C2.00462918,6.07826087 1.73854222,5.56956522 1.61332483,4.95652174 C-1.46232735,7.16086957 0.157672651,12 3.96115092,12 C9.67941179,12 8.61245526,2.44434783 2.39593352,0 Z" id="Path" stroke="#F55F71" stroke-linecap="round"></path>
                                <path d="M4.22202048,7.30434783 C4.73854222,8.22521739 3.43419439,9.54521739 2.65680309,9.3626087 C2.76636831,9.97304348 3.29593352,10.4347826 3.93767265,10.4347826 C4.65767265,10.4347826 5.22115092,9.85043478 5.24202048,9.13043478 C5.26549874,8.34782609 5.00462918,7.30434783 4.22202048,7.30434783 Z" id="Path" fill="#F55F71" fill-rule="nonzero"></path>
                            </g>
                        </g>
                    </g>
                </g>
            </g>
        </g>
    </g>
</svg>